Coordinates
version=1
nRows=17
nColumns=24
inDegrees=yes

Units are S.I. units (second, meters, Newtons, ...)
Angles are in degrees.

endheader
time	pelvis_tilt	pelvis_list	pelvis_rotation	pelvis_tx	pelvis_ty	pelvis_tz	hip_flexion_r	hip_adduction_r	hip_rotation_r	knee_angle_r	ankle_angle_r	subtalar_angle_r	mtp_angle_r	hip_flexion_l	hip_adduction_l	hip_rotation_l	knee_angle_l	ankle_angle_l	subtalar_angle_l	mtp_angle_l	lumbar_extension	lumbar_bending	lumbar_rotation
      3.96000000	    -10.31881995	      2.56749749	     -1.99837227	     -1.92914543	     -0.01132776	      0.42916499	     35.56146307	     -1.21325645	     -2.51977932	    -50.25418896	    -10.27544220	    -12.56703830	     13.72625283	      5.60957155	      6.43363189	      9.36038307	     -8.02726099	      3.30470216	      3.79097411	      6.98970974	      7.21151838	     -3.08337185	     -2.72214119
      3.96500000	    -10.41668230	      2.42850919	     -1.62001166	     -1.92362972	     -0.01155123	      0.42880520	     35.86763259	     -1.23009659	     -2.84014038	    -48.68160334	     -9.87843834	    -11.98716089	     13.69797508	      5.15407777	      6.30213064	      9.57202689	     -7.70536214	      3.45462110	      4.02381304	      6.96511091	      7.24131257	     -3.04203434	     -3.04885451
      3.97000000	    -10.52005163	      2.29061531	     -1.24075487	     -1.91811249	     -0.01180507	      0.42845658	     36.13418574	     -1.25361812	     -3.15246331	    -47.02109886	     -9.47356621	    -11.34782419	     13.70212385	      4.71601654	      6.16815168	      9.77146412	     -7.40164830	      3.60346717	      4.26064781	      6.95167241	      7.27609644	     -3.00244108	     -3.37408677
      3.97500000	    -10.68136524	      2.13899657	     -0.94383068	     -1.91259074	     -0.01213615	      0.42825321	     36.41821904	     -1.19229867	     -3.33623396	    -45.25385092	     -9.15457189	    -10.73219775	     13.71992006	      4.35459270	      6.00622919	      9.88560062	     -7.11992325	      3.72422357	      4.42893544	      6.94633543	      7.37723652	     -2.93858748	     -3.63558825
      3.98000000	    -10.80190475	      1.98969404	     -0.55209874	     -1.90705882	     -0.01244939	      0.42792477	     36.60411540	     -1.22339676	     -3.64472164	    -43.41458875	     -8.73935883	     -9.94342749	     13.80872683	      3.96307723	      5.85403721	     10.06799503	     -6.86333455	      3.87609017	      4.68085413	      6.97467312	      7.42880499	     -2.89423857	     -3.97684380
      3.98500000	    -10.83555588	      1.88532092	     -0.08439048	     -1.90156799	     -0.01271033	      0.42752341	     36.66445546	     -1.37235678	     -4.06269159	    -41.53976018	     -8.24535376	     -9.02625320	     13.86597410	      3.49400515	      5.75320218	     10.27594149	     -6.62746306	      4.04204463	      5.01519759	      6.99577476	      7.37336250	     -2.91526131	     -4.34986532
      3.99000000	    -10.91599487	      1.75926431	      0.30344918	     -1.89601485	     -0.01303740	      0.42725031	     36.72203167	     -1.43019564	     -4.35906692	    -39.56910201	     -7.81737179	     -8.11282134	     13.87076223	      3.08319716	      5.61786076	     10.41319133	     -6.41355263	      4.19768072	      5.29420311	      7.00532124	      7.37964698	     -2.89930323	     -4.67140705
      3.99500000	    -11.01677567	      1.63730834	      0.67864215	     -1.89043800	     -0.01341615	      0.42702138	     36.76270855	     -1.48743440	     -4.64980671	    -37.53730490	     -7.42873299	     -7.17588226	     13.89630925	      2.70513402	      5.48091642	     10.53789788	     -6.21927958	      4.34689632	      5.57371598	      7.03785578	      7.41075062	     -2.89009050	     -4.95114240
      4.00000000	    -11.06914533	      1.53344708	      1.09078937	     -1.88490029	     -0.01376384	      0.42677533	     36.70757323	     -1.58330815	     -4.93791807	    -35.45652720	     -7.02948101	     -6.16913161	     13.88175634	      2.30619953	      5.36376801	     10.66784539	     -6.07986382	      4.50628271	      5.89594889	      7.08468871	      7.37480667	     -2.90791024	     -5.30499126
      4.00500000	    -11.17528731	      1.42491261	      1.46216865	     -1.87921806	     -0.01421584	      0.42656554	     36.67320101	     -1.66364397	     -5.25890741	    -33.33277700	     -6.68968758	     -5.19909354	     13.89693029	      1.94774745	      5.23474691	     10.77825972	     -5.91932318	      4.65090425	      6.18727410	      7.14950374	      7.42482737	     -2.90851631	     -5.53405014
      4.01000000	    -11.19961324	      1.34204461	      1.89145244	     -1.87361787	     -0.01459883	      0.42635111	     36.51065506	     -1.79368048	     -5.58143895	    -31.18313493	     -6.32858983	     -4.17920489	     13.83750614	      1.55034846	      5.13248341	     10.91189773	     -5.84727744	      4.80963329	      6.53335480	      7.23813821	      7.35855544	     -2.95421294	     -5.88757267
      4.01500000	    -11.25505818	      1.26004676	      2.29663506	     -1.86790223	     -0.01505486	      0.42614162	     36.35181262	     -1.91972563	     -5.93602897	    -29.02239713	     -6.03669163	     -3.19792996	     13.76089881	      1.17444505	      5.02642936	     11.03529609	     -5.76040116	      4.95671207	      6.85399420	      7.33352578	      7.34860356	     -2.98542419	     -6.15718332
      4.02000000	    -11.28973145	      1.19347590	      2.70540658	     -1.86216443	     -0.01551479	      0.42599330	     36.14544341	     -2.05801519	     -6.31655801	    -26.86606838	     -5.78138284	     -2.23965603	     13.63670766	      0.79562640	      4.92827496	     11.17574910	     -5.71644552	      5.08986908	      7.18171894	      7.44574781	      7.31038941	     -3.04374896	     -6.44013928
      4.02500000	    -11.30190305	      1.13746636	      3.12696030	     -1.85639178	     -0.01597582	      0.42583059	     35.89435907	     -2.21633438	     -6.75074055	    -24.73505156	     -5.57164992	     -1.29007846	     13.45188419	      0.40500156	      4.83666933	     11.33520681	     -5.69925805	      5.21858590	      7.51606359	      7.57527319	      7.24958674	     -3.10837454	     -6.72171658
      4.03000000	    -11.33236802	      1.07474262	      3.53065039	     -1.85055916	     -0.01648622	      0.42569947	     35.65044904	     -2.35924899	     -7.23199526	    -22.63927830	     -5.44333905	     -0.36873248	     13.24040379	      0.04354146	      4.73204811	     11.52070060	     -5.70851775	      5.34738255	      7.82820536	      7.72149535	      7.21579934	     -3.15814109	     -6.95071033
      4.03500000	    -11.31039858	      1.03955695	      3.97349206	     -1.84471339	     -0.01696485	      0.42556984	     35.33703287	     -2.54229413	     -7.78336013	    -20.60376423	     -5.30540200	      0.52787111	     12.94922927	     -0.34992322	      4.64941071	     11.72177157	     -5.76576396	      5.46654424	      8.16181293	      7.89391806	      7.11865162	     -3.24383318	     -7.23845424
      4.04000000	    -11.27729731	      1.01236022	      4.40221861	     -1.83881384	     -0.01745111	      0.42548081	     35.01125529	     -2.71872472	     -8.38905962	    -18.64559882	     -5.20805227	      1.41349398	     12.58396537	     -0.74527956	      4.56675111	     11.92385366	     -5.84807427	      5.57217693	      8.48834794	      8.08046262	      7.01487541	     -3.33134144	     -7.50043086
